<svg viewBox="0 0 32 32" fill="none" xmlns="http://www.w3.org/2000/svg">
<path d="M18.4744 16L29.4873 4.98827C30.1709 4.30464 30.1709 3.19628 29.4873 2.51272C28.8037 1.82909 27.6953 1.82909 27.0117 2.51272L16 13.5256L4.98827 2.51272C4.30464 1.82909 3.19628 1.82909 2.51272 2.51272C1.82915 3.19634 1.82909 4.3047 2.51272 4.98827L13.5256 16L2.51272 27.0117C1.82909 27.6954 1.82909 28.8037 2.51272 29.4873C3.19634 30.1709 4.3047 30.1709 4.98827 29.4873L16 18.4744L27.0117 29.4873C27.6953 30.1709 28.8037 30.1709 29.4872 29.4873C30.1709 28.8037 30.1709 27.6953 29.4872 27.0117L18.4744 16Z" fill="white"/>
</svg>
