<svg width="24" height="24" viewBox="0 0 24 24" fill="none" xmlns="http://www.w3.org/2000/svg">
<path d="M12 6C11.8011 6 11.6103 5.92098 11.4697 5.78033C11.329 5.63968 11.25 5.44891 11.25 5.25V3.75C11.25 3.55109 11.329 3.36032 11.4697 3.21967C11.6103 3.07902 11.8011 3 12 3C12.1989 3 12.3897 3.07902 12.5303 3.21967C12.671 3.36032 12.75 3.55109 12.75 3.75V5.25C12.75 5.44891 12.671 5.63968 12.5303 5.78033C12.3897 5.92098 12.1989 6 12 6ZM12.75 20.25V18.75C12.75 18.5511 12.671 18.3603 12.5303 18.2197C12.3897 18.079 12.1989 18 12 18C11.8011 18 11.6103 18.079 11.4697 18.2197C11.329 18.3603 11.25 18.5511 11.25 18.75V20.25C11.25 20.4489 11.329 20.6397 11.4697 20.7803C11.6103 20.921 11.8011 21 12 21C12.1989 21 12.3897 20.921 12.5303 20.7803C12.671 20.6397 12.75 20.4489 12.75 20.25ZM6 12C6 11.8011 5.92098 11.6103 5.78033 11.4697C5.63968 11.329 5.44891 11.25 5.25 11.25H3.75C3.55109 11.25 3.36032 11.329 3.21967 11.4697C3.07902 11.6103 3 11.8011 3 12C3 12.1989 3.07902 12.3897 3.21967 12.5303C3.36032 12.671 3.55109 12.75 3.75 12.75H5.25C5.44891 12.75 5.63968 12.671 5.78033 12.5303C5.92098 12.3897 6 12.1989 6 12ZM21 12C21 11.8011 20.921 11.6103 20.7803 11.4697C20.6397 11.329 20.4489 11.25 20.25 11.25H18.75C18.5511 11.25 18.3603 11.329 18.2197 11.4697C18.079 11.6103 18 11.8011 18 12C18 12.1989 18.079 12.3897 18.2197 12.5303C18.3603 12.671 18.5511 12.75 18.75 12.75H20.25C20.4489 12.75 20.6397 12.671 20.7803 12.5303C20.921 12.3897 21 12.1989 21 12ZM16.0342 6.53625L16.7842 5.238C16.8767 5.06629 16.8986 4.86534 16.8453 4.67776C16.792 4.49018 16.6678 4.33071 16.499 4.23317C16.3301 4.13563 16.1299 4.10768 15.9408 4.15525C15.7517 4.20282 15.5886 4.32217 15.486 4.488L14.736 5.78625C14.6365 5.95842 14.6094 6.16306 14.6608 6.35518C14.7121 6.5473 14.8376 6.71117 15.0098 6.81075C15.1235 6.87728 15.253 6.91223 15.3848 6.912C15.5165 6.91192 15.6459 6.87715 15.7599 6.81119C15.8739 6.74523 15.9685 6.6504 16.0342 6.53625ZM8.51175 19.5112L9.26175 18.213C9.35415 18.0413 9.37605 17.8403 9.3228 17.6528C9.26954 17.4652 9.14533 17.3057 8.97648 17.2082C8.80763 17.1106 8.60744 17.0827 8.41833 17.1303C8.22923 17.1778 8.06609 17.2972 7.9635 17.463L7.2135 18.7612C7.11392 18.9333 7.08674 19.1379 7.13794 19.33C7.18913 19.5221 7.3145 19.686 7.4865 19.7858C7.60029 19.8522 7.72973 19.8872 7.8615 19.887C7.99313 19.8873 8.12251 19.8529 8.23666 19.7874C8.3508 19.7218 8.44567 19.6273 8.51175 19.5135V19.5112ZM6.80925 8.99025C6.90883 8.81817 6.93601 8.6136 6.88481 8.42149C6.83362 8.22938 6.70825 8.06546 6.53625 7.96575L5.238 7.21575C5.06629 7.12334 4.86534 7.10145 4.67776 7.1547C4.49018 7.20796 4.33071 7.33218 4.23317 7.50102C4.13563 7.66987 4.10768 7.87006 4.15525 8.05917C4.20282 8.24827 4.32217 8.41141 4.488 8.514L5.78625 9.264C5.95842 9.36351 6.16306 9.39058 6.35518 9.33924C6.5473 9.28791 6.71117 9.16238 6.81075 8.99025H6.80925ZM19.7842 16.5135C19.8337 16.4283 19.8658 16.3341 19.8788 16.2365C19.8919 16.1388 19.8855 16.0395 19.8602 15.9443C19.8348 15.8491 19.791 15.7598 19.7311 15.6816C19.6712 15.6033 19.5965 15.5376 19.5112 15.4882L18.213 14.7383C18.0413 14.6458 17.8403 14.6239 17.6528 14.6772C17.4652 14.7305 17.3057 14.8547 17.2082 15.0235C17.1106 15.1924 17.0827 15.3926 17.1303 15.5817C17.1778 15.7708 17.2972 15.9339 17.463 16.0365L18.7612 16.7865C18.875 16.853 19.0045 16.888 19.1362 16.8878C19.268 16.888 19.3974 16.8535 19.5115 16.7878C19.6257 16.7221 19.7205 16.6275 19.7865 16.5135H19.7842ZM8.99025 6.80925C9.16238 6.70967 9.28791 6.5458 9.33924 6.35368C9.39058 6.16156 9.36351 5.95692 9.264 5.78475L8.514 4.4865C8.41141 4.32067 8.24827 4.20132 8.05917 4.15375C7.87006 4.10618 7.66987 4.13413 7.50102 4.23167C7.33218 4.32921 7.20796 4.48868 7.1547 4.67626C7.10145 4.86384 7.12334 5.06479 7.21575 5.2365L7.96575 6.53475C8.03157 6.64876 8.12625 6.74344 8.24026 6.80926C8.35427 6.87509 8.4836 6.90975 8.61525 6.90975C8.74697 6.91021 8.87642 6.87552 8.99025 6.80925ZM16.5135 19.7842C16.6855 19.6845 16.8109 19.5206 16.8621 19.3285C16.9133 19.1364 16.8861 18.9318 16.7865 18.7598L16.0365 17.4615C15.9339 17.2957 15.7708 17.1763 15.5817 17.1287C15.3926 17.0812 15.1924 17.1091 15.0235 17.2067C14.8547 17.3042 14.7305 17.4637 14.6772 17.6513C14.6239 17.8388 14.6458 18.0398 14.7383 18.2115L15.4882 19.5098C15.5376 19.595 15.6033 19.6697 15.6816 19.7296C15.7598 19.7895 15.8491 19.8333 15.9443 19.8587C16.0395 19.884 16.1388 19.8904 16.2365 19.8773C16.3341 19.8643 16.4283 19.8322 16.5135 19.7828V19.7842ZM18.2153 9.26175L19.5135 8.51175C19.6793 8.40916 19.7987 8.24602 19.8462 8.05692C19.8938 7.86781 19.8659 7.66762 19.7683 7.49877C19.6708 7.32992 19.5113 7.20571 19.3237 7.15245C19.1362 7.0992 18.9352 7.1211 18.7635 7.2135L17.4653 7.9635C17.2994 8.06609 17.1801 8.22923 17.1325 8.41833C17.0849 8.60744 17.1129 8.80763 17.2104 8.97648C17.308 9.14533 17.4674 9.26954 17.655 9.3228C17.8426 9.37605 18.0435 9.35415 18.2153 9.26175ZM5.24025 16.7842L6.5385 16.0342C6.70433 15.9317 6.82368 15.7685 6.87125 15.5794C6.91882 15.3903 6.89087 15.1901 6.79333 15.0213C6.69579 14.8524 6.53632 14.7282 6.34874 14.675C6.16116 14.6217 5.96021 14.6436 5.7885 14.736L4.49025 15.486C4.34728 15.5686 4.23554 15.696 4.17237 15.8485C4.10919 16.001 4.09811 16.1701 4.14084 16.3296C4.18357 16.4891 4.27772 16.63 4.4087 16.7305C4.53968 16.831 4.70016 16.8855 4.86525 16.8855C4.99606 16.886 5.12468 16.8519 5.238 16.7865L5.24025 16.7842Z" fill="#1B232A"/>
</svg>
