<svg  viewBox="0 0 184 48" fill="none" xmlns="http://www.w3.org/2000/svg">
<path d="M13.6035 3.78702C13.6237 3.63817 13.6388 3.48931 13.6388 3.33288C13.6388 1.83422 12.65 0.567679 11.2904 0.146339C11.2122 0.121109 11.134 0.103448 11.0533 0.0857872C11.0281 0.0807412 11.0029 0.0706492 10.9751 0.0656032C10.7582 0.0201893 10.5362 -0.0025177 10.3067 -0.0025177C8.46277 5.2962e-06 6.96948 1.49362 6.96948 3.33541C6.96948 3.48931 6.98462 3.64069 7.0048 3.78955V10.0617H13.6035V3.78702Z" fill="white"/>
<path d="M17.2736 16.7325C18.1438 16.7325 18.9283 16.402 19.5236 15.8545C19.5968 15.7864 19.6674 15.7157 19.7355 15.6426C20.1214 15.2238 20.3989 14.7065 20.5276 14.1288C20.5805 13.8916 20.6108 13.6469 20.6108 13.3946C20.6108 12.9329 20.5175 12.4964 20.3485 12.0952C19.844 10.8968 18.6584 10.0592 17.2736 10.0592H13.606V16.7325H17.2736Z" fill="white"/>
<path d="M54.8479 10.0642C53.004 10.0642 51.5107 11.5579 51.5107 13.4022V33.9671C51.5107 35.8114 53.004 37.305 54.8479 37.305C56.6919 37.305 58.1851 35.8114 58.1851 33.9671V13.4022C58.1851 11.5579 56.6919 10.0642 54.8479 10.0642Z" fill="white"/>
<path d="M43.3078 11.8682L41.2445 11.7017C38.4017 11.4721 35.6749 12.1508 33.3568 13.4955V13.4022C33.3568 11.5579 31.8635 10.0642 30.0196 10.0642C28.1757 10.0642 26.6824 11.5579 26.6824 13.4022V33.9671C26.6824 35.8114 28.1757 37.305 30.0196 37.305C31.8635 37.305 33.3568 35.8114 33.3568 33.9671V23.8322C34.0656 20.4413 37.2186 18.0495 40.7097 18.3321L42.8689 18.5062C43.0127 18.5264 43.159 18.539 43.3104 18.539C45.1517 18.539 46.645 17.0454 46.645 15.2036C46.645 13.3618 45.1517 11.8682 43.3104 11.8682H43.3078Z" fill="white"/>
<path d="M54.8481 6.6708C56.6898 6.6708 58.1828 5.17749 58.1828 3.3354C58.1828 1.49331 56.6898 0 54.8481 0C53.0064 0 51.5134 1.49331 51.5134 3.3354C51.5134 5.17749 53.0064 6.6708 54.8481 6.6708Z" fill="white"/>
<path d="M21.5769 33.9671C21.5769 32.1253 20.0837 30.6317 18.2423 30.6317C17.9118 30.6317 17.594 30.6822 17.2913 30.7705H15.5508C14.4763 30.7705 13.606 29.9 13.606 28.8303V16.73V10.0567H7.00728H3.33964C2.41895 10.0567 1.58906 10.4276 0.978629 11.0331C0.380809 11.6361 0.00244141 12.4687 0.00244141 13.3946C0.00244141 15.2339 1.49825 16.73 3.33964 16.73H7.00728V29.5014C7.00728 33.8082 10.5084 37.3 14.837 37.3H18.2221C18.2221 37.3 18.2372 37.3 18.2448 37.3C18.2524 37.3 18.2599 37.3 18.2675 37.3H18.3003C19.2084 37.3 20.0282 36.9341 20.6209 36.3412C21.2137 35.7534 21.5795 34.9385 21.5795 34.0352C21.5795 34.015 21.5769 33.9974 21.5769 33.9772C21.5769 33.9722 21.5769 33.9696 21.5769 33.9646V33.9671Z" fill="white"/>
<path d="M180.665 37.3025C182.507 37.3025 184 35.8092 184 33.9671C184 32.125 182.507 30.6317 180.665 30.6317C178.824 30.6317 177.331 32.125 177.331 33.9671C177.331 35.8092 178.824 37.3025 180.665 37.3025Z" fill="white"/>
<path d="M178.789 15.2036C178.789 13.3618 177.295 11.8682 175.454 11.8682L173.39 11.7017C170.548 11.4721 167.821 12.1508 165.503 13.4955V13.3164C165.503 11.4721 164.009 9.97845 162.166 9.97845C160.322 9.97845 158.828 11.4721 158.828 13.3164V34.1185C158.828 35.9628 160.322 37.4564 162.166 37.4564C164.009 37.4564 165.503 35.9628 165.503 34.1185V23.8297C166.212 20.4388 169.365 18.047 172.856 18.3296L175.015 18.5037C175.159 18.5238 175.305 18.5365 175.456 18.5365C177.298 18.5365 178.791 17.0428 178.791 15.2011L178.789 15.2036Z" fill="white"/>
<path d="M88.3083 10.2131C87.9955 10.1147 87.6651 10.0617 87.322 10.0617C87.2085 10.0617 87.1 10.0693 86.989 10.0794C86.9789 10.0794 86.9663 10.0819 86.9563 10.0844C86.8654 10.0945 86.7772 10.1071 86.6889 10.1248C86.6636 10.1298 86.6384 10.1349 86.6132 10.1399C86.5426 10.1551 86.4694 10.1752 86.4013 10.1954C86.371 10.2055 86.3382 10.2131 86.3055 10.2232C86.2954 10.2257 86.2853 10.2307 86.2752 10.2358C85.3267 10.5486 84.5675 11.2753 84.2093 12.2037C82.2065 10.9927 79.8656 10.2963 77.3634 10.2963C70.0432 10.2963 64.1079 16.233 64.1079 23.5547C64.1079 30.8764 70.0432 36.813 77.3634 36.813C79.79 36.813 82.0627 36.1596 84.0176 35.0167V39.4496C84.0176 40.5244 83.1474 41.3948 82.0728 41.3948H68.0833C67.8765 41.3544 67.662 41.3317 67.4426 41.3317C65.6012 41.3317 64.1079 42.8253 64.1079 44.6671C64.1079 44.6722 64.1079 44.6772 64.1079 44.6823C64.1079 44.6873 64.1079 44.6923 64.1079 44.6974C64.1079 46.5215 65.5886 48 67.4098 48H82.7866C87.1101 48 90.6163 44.4905 90.6163 40.1686V13.8512C90.6365 13.7024 90.6516 13.551 90.6516 13.3971C90.6516 11.901 89.6654 10.6319 88.3058 10.2106L88.3083 10.2131ZM77.3659 30.2104C73.6907 30.2104 70.7117 27.2282 70.7117 23.5547C70.7117 19.8812 73.6932 16.899 77.3659 16.899C81.0386 16.899 84.0201 19.8812 84.0201 23.5547C84.0201 27.2282 81.0386 30.2104 77.3659 30.2104Z" fill="white"/>
<path d="M147.586 12.0347C145.285 10.637 142.559 9.90025 139.64 10.0895C132.885 10.5209 127.389 16.0135 126.945 22.7701C126.927 23.0577 126.919 23.3428 126.917 23.6279C126.917 23.6455 126.914 23.6632 126.914 23.6809C126.914 23.7137 126.919 23.7439 126.919 23.7767C126.972 31.2574 133.041 37.3025 140.533 37.3025C143.028 37.3025 145.366 36.6314 147.371 35.4582C147.77 35.2261 148.153 34.9763 148.524 34.7038C151.145 32.8091 149.732 28.6461 146.496 28.6461H146.274C145.631 28.6461 145.023 28.8732 144.501 29.2491C143.149 30.2129 141.431 30.7024 139.592 30.4576C136.588 30.0539 134.161 27.6319 133.763 24.6219C133.175 20.1714 136.87 16.402 141.31 16.8889C143.522 17.1261 145.444 18.4633 146.501 20.3429H139.163C138.243 20.3429 137.408 20.7138 136.802 21.3244C136.192 21.9223 135.821 22.76 135.821 23.6809C135.821 25.5252 137.317 27.0238 139.163 27.0238H150.817C151.738 27.0238 152.573 26.6479 153.173 26.0424C153.783 25.4394 154.154 24.6118 154.154 23.6859V23.6809C154.154 18.7433 151.523 14.4189 147.588 12.0347H147.586Z" fill="white"/>
<path d="M119.894 10.2131C119.582 10.1147 119.251 10.0617 118.908 10.0617C118.795 10.0617 118.686 10.0693 118.575 10.0794C118.565 10.0794 118.553 10.0819 118.542 10.0844C118.452 10.0945 118.363 10.1071 118.275 10.1248C118.25 10.1298 118.225 10.1349 118.199 10.1399C118.129 10.1551 118.056 10.1752 117.987 10.1954C117.957 10.2055 117.924 10.2131 117.892 10.2232C117.882 10.2257 117.871 10.2307 117.859 10.2358C116.91 10.5486 116.154 11.2753 115.795 12.2037C113.793 10.9927 111.452 10.2963 108.95 10.2963C101.629 10.2963 95.6941 16.233 95.6941 23.5547C95.6941 30.8764 101.629 36.813 108.95 36.813C111.376 36.813 113.649 36.1596 115.604 35.0167V39.4496C115.604 40.5244 114.734 41.3948 113.659 41.3948H99.6695C99.4626 41.3544 99.2482 41.3317 99.0288 41.3317C97.1874 41.3317 95.6941 42.8253 95.6941 44.6671C95.6941 44.6722 95.6941 44.6772 95.6941 44.6823C95.6941 44.6873 95.6941 44.6923 95.6941 44.6974C95.6941 46.5215 97.1748 48 98.996 48H114.373C118.696 48 122.202 44.4905 122.202 40.1686V13.8512C122.223 13.7024 122.238 13.551 122.238 13.3971C122.238 11.901 121.252 10.6319 119.892 10.2106L119.894 10.2131ZM108.952 30.2104C105.277 30.2104 102.298 27.2282 102.298 23.5547C102.298 19.8812 105.279 16.899 108.952 16.899C112.625 16.899 115.606 19.8812 115.606 23.5547C115.606 27.2282 112.625 30.2104 108.952 30.2104Z" fill="white"/>
</svg>
