<svg viewBox="0 0 48 48" fill="none" xmlns="http://www.w3.org/2000/svg">
<path d="M0 24C0 28.7468 1.40758 33.3869 4.04473 37.3337C6.68188 41.2805 10.4302 44.3566 14.8156 46.1731C19.201 47.9896 24.0266 48.4649 28.6822 47.5388C33.3377 46.6128 37.6141 44.327 40.9706 40.9706C44.327 37.6141 46.6128 33.3377 47.5388 28.6822C48.4649 24.0266 47.9896 19.201 46.1731 14.8156C44.3566 10.4302 41.2805 6.68188 37.3337 4.04473C33.3869 1.40758 28.7468 0 24 0C17.6369 0.00688216 11.5364 2.53766 7.03704 7.03704C2.53766 11.5364 0.00688216 17.6369 0 24ZM44 24C44 27.9556 42.827 31.8224 40.6294 35.1114C38.4318 38.4004 35.3082 40.9638 31.6537 42.4776C27.9992 43.9914 23.9778 44.3874 20.0982 43.6157C16.2186 42.844 12.6549 40.9392 9.85787 38.1421C7.06081 35.3451 5.156 31.7814 4.38429 27.9018C3.61259 24.0222 4.00866 20.0009 5.52241 16.3463C7.03616 12.6918 9.59961 9.56824 12.8886 7.37061C16.1776 5.17298 20.0444 4 24 4C29.3025 4.00582 34.3862 6.11483 38.1357 9.8643C41.8852 13.6138 43.9942 18.6975 44 24Z" fill="white" fill-opacity="0.4"/>
<path d="M32.0001 24C32.0016 25.464 31.4665 26.8778 30.4961 27.974C29.9141 28.628 29.3481 29.248 28.9421 29.654L23.2941 35.4C23.1133 35.5998 22.8939 35.7609 22.6493 35.8738C22.4046 35.9866 22.1396 36.0489 21.8703 36.0568C21.601 36.0647 21.3328 36.0181 21.082 35.9198C20.8311 35.8216 20.6027 35.6736 20.4104 35.4848C20.2181 35.2961 20.066 35.0704 19.9631 34.8214C19.8602 34.5723 19.8087 34.3051 19.8116 34.0357C19.8146 33.7662 19.872 33.5002 19.9803 33.2535C20.0887 33.0068 20.2457 32.7845 20.4421 32.6L26.1001 26.84C26.4741 26.464 26.9821 25.904 27.5001 25.322C27.8224 24.9567 28.0002 24.4862 28.0002 23.999C28.0002 23.5118 27.8224 23.0414 27.5001 22.676C27.0505 22.1634 26.5883 21.6619 26.1141 21.172L20.4421 15.4C20.2457 15.2155 20.0887 14.9933 19.9803 14.7466C19.872 14.4999 19.8146 14.2338 19.8116 13.9644C19.8087 13.695 19.8602 13.4277 19.9631 13.1787C20.066 12.9297 20.2181 12.704 20.4104 12.5152C20.6027 12.3265 20.8311 12.1785 21.082 12.0802C21.3328 11.9819 21.601 11.9353 21.8703 11.9432C22.1396 11.9512 22.4046 12.0134 22.6493 12.1263C22.8939 12.2391 23.1133 12.4003 23.2941 12.6L28.9521 18.358C29.3521 18.758 29.9121 19.372 30.4901 20.024C31.4637 21.1195 32.001 22.5344 32.0001 24Z" fill="white" fill-opacity="0.4"/>
</svg>
