<svg viewBox="0 0 1680 416" fill="none" xmlns="http://www.w3.org/2000/svg">
<path d="M1250.49 410.311H1142.95V91.0392H1248.59V171.964C1266.3 132.134 1300.46 87.8781 1347.27 87.8781C1394.08 87.8781 1433.93 125.811 1446.58 171.964C1473.15 115.064 1491.5 90.407 1542.1 87.2458C1631.92 82.8203 1680 138.456 1680 228.864V410.311H1573.1V235.186C1573.1 202.31 1563.61 173.86 1525.02 173.86C1482.01 173.86 1465.56 206.736 1465.56 245.933V410.311H1358.02V235.186C1358.02 201.678 1349.17 173.86 1309.95 173.86C1266.94 173.86 1250.49 206.736 1250.49 245.933V410.311Z" fill="white" fill-opacity="0.16"/>
<path d="M1018.32 410.31C991.756 410.31 951.905 395.137 950.007 352.146C931.662 400.194 889.913 416 842.471 416C787.438 416 731.772 391.343 726.079 330.018C717.856 250.358 781.745 221.276 862.713 221.276L949.374 221.908V192.826C949.374 172.595 937.988 158.054 896.239 158.054C859.55 158.054 843.103 169.434 843.103 194.09H748.851C745.056 111.901 810.843 81.5547 891.811 81.5547C972.779 81.5547 1053.75 101.786 1053.75 183.342V315.477C1053.75 331.914 1058.81 343.294 1075.25 343.294H1077.78V410.31H1018.32ZM826.657 312.948C824.759 343.294 847.531 347.088 874.732 346.456C906.992 345.191 949.374 319.902 949.374 289.556V277.543L881.057 278.808C842.471 279.44 827.289 287.659 826.657 312.948Z" fill="white" fill-opacity="0.16"/>
<path d="M593.533 311.052H685.255C674.501 398.298 587.84 410.31 525.849 410.31C423.374 410.31 344.936 368.584 344.936 240.875C344.936 203.574 360.117 84.084 518.891 84.084C639.078 84.084 689.05 151.732 689.05 269.325H440.453C441.718 304.729 462.592 333.179 527.114 333.179C556.212 333.179 587.208 331.283 593.533 311.052ZM442.983 222.541H591.003C587.208 183.343 560.64 168.802 512.565 168.802C475.876 168.802 451.839 186.504 442.983 222.541Z" fill="white" fill-opacity="0.16"/>
<path d="M241.007 410.312H131.573V86.6144H0V0H372.58V86.6144H241.007V410.312Z" fill="white" fill-opacity="0.16"/>
</svg>
